<svg width="80" height="64" viewBox="0 0 80 64" fill="none" xmlns="http://www.w3.org/2000/svg">
<path d="M76.0005 27.9995L13.6565 27.9995L34.8285 6.8275C36.3905 5.2655 36.3905 2.7335 34.8285 1.1715C33.2665 -0.3905 30.7335 -0.3905 29.1715 1.1715L1.17149 29.1715C-0.390514 30.7335 -0.390514 33.2665 1.17149 34.8275L29.1715 62.8275C29.9525 63.6085 30.9765 63.9995 32.0005 63.9995C33.0235 63.9995 34.0475 63.6085 34.8285 62.8275C36.3905 61.2655 36.3905 58.7325 34.8285 57.1715L13.6565 35.9995L76.0005 35.9995C78.2085 35.9995 80.0005 34.2085 80.0005 31.9995C80.0005 29.7905 78.2095 27.9995 76.0005 27.9995Z" fill="white"/>
</svg>
