<svg width="80" height="64" viewBox="0 0 80 64" fill="none" xmlns="http://www.w3.org/2000/svg">
<path d="M4 36H66.344L45.172 57.172C43.61 58.734 43.61 61.266 45.172 62.828C46.734 64.39 49.267 64.39 50.829 62.828L78.829 34.828C80.391 33.266 80.391 30.733 78.829 29.172L50.829 1.17199C50.048 0.390993 49.024 -3.8147e-06 48 -3.8147e-06C46.977 -3.8147e-06 45.953 0.390993 45.172 1.17199C43.61 2.73399 43.61 5.267 45.172 6.828L66.344 28L4 28C1.792 28 0 29.791 0 32C0 34.209 1.791 36 4 36Z" fill="white"/>
</svg>
