<svg width="133" height="133" viewBox="0 0 133 133" fill="none" xmlns="http://www.w3.org/2000/svg">
<path d="M64.0371 113.789V58.6184H68.963V113.789L84.7259 98.0258L88.6667 101.967L66.4999 123.641L44.3333 101.967L48.2741 98.0258L64.0371 113.789Z" fill="black"/>
<path d="M15.2702 45.811C17.7331 33.4963 29.0631 24.1369 41.8702 24.1369C46.3037 24.1369 50.2444 25.1221 53.6925 27.0925C59.6033 16.2554 70.9331 9.35912 83.7405 9.35912C102.951 9.35912 118.222 24.6296 118.222 43.8406C118.222 44.3333 118.222 45.3182 118.222 45.811C127.089 49.752 133 58.1259 133 68.4702C133 82.2628 122.163 93.0999 108.37 93.0999H73.8889V88.1739H108.37C119.207 88.1739 128.074 79.3073 128.074 68.4702C128.074 59.1108 121.67 51.2294 112.804 49.2592C113.296 47.2889 113.296 45.811 113.296 43.8406C113.296 27.5852 99.9962 14.285 83.7407 14.285C70.9333 14.285 60.0963 22.6593 55.6628 33.9887C51.7221 31.0332 46.7962 29.0628 41.8702 29.0628C30.048 29.0628 20.6889 37.9295 19.7037 49.2592C11.3295 51.2296 4.92593 59.1111 4.92593 68.4702C4.92593 79.3073 13.7926 88.1739 24.6296 88.1739H59.1111V93.0999H24.6296C10.837 93.0999 5.17815e-07 82.2628 5.17815e-07 68.4702C5.17815e-07 58.1259 6.40357 49.2592 15.2702 45.811Z" fill="black"/>
</svg>
